<svg width="24" height="24" viewBox="0 0 24 24" fill="none" xmlns="http://www.w3.org/2000/svg">
<path d="M21.6376 5.13755L19.0641 3.10786C18.9844 3.04224 18.886 2.99536 18.7735 2.99536C18.661 2.99536 18.5579 3.04224 18.4782 3.11255L9.11726 15.1407C9.11726 15.1407 5.43757 11.6016 5.33445 11.4985C5.23132 11.3954 5.09539 11.2219 4.88914 11.2219C4.68289 11.2219 4.58914 11.3672 4.48132 11.475C4.40164 11.5594 3.08914 12.9375 2.44226 13.6219C2.40476 13.6641 2.38132 13.6875 2.34851 13.7204C2.29226 13.8 2.25476 13.8891 2.25476 13.9875C2.25476 14.0907 2.29226 14.175 2.34851 14.2547L2.47976 14.3766C2.47976 14.3766 9.00945 20.6485 9.11726 20.7563C9.22507 20.8641 9.35632 21 9.54851 21C9.73601 21 9.8907 20.7985 9.97976 20.7094L21.6563 5.70942C21.7126 5.62974 21.7501 5.54067 21.7501 5.43755C21.7501 5.32036 21.7032 5.22192 21.6376 5.13755Z" fill="#E67E22"/>
</svg>
