<svg width="24" height="24" viewBox="0 0 24 24" fill="none" xmlns="http://www.w3.org/2000/svg">
<path d="M17.7383 20.2116C16.109 22.03 13.8475 23.0777 11.5306 23.0777C10.9167 23.0777 10.3029 22.9993 9.7075 22.8516C8.06442 22.4454 6.66135 21.55 5.53058 20.1885C5.49365 20.1423 2.36442 16.127 5.2675 11.3362C5.42442 11.0823 5.59981 10.8516 5.73827 10.6762C7.00288 9.08388 8.23981 6.88234 7.56596 5.90849C7.51368 5.83138 7.48612 5.74017 7.48695 5.64701C7.48777 5.55384 7.51694 5.46314 7.57058 5.38696C7.67673 5.22542 7.87519 5.15157 8.05981 5.20234C8.23981 5.24388 9.63365 5.68234 9.93365 8.44234C10.2383 7.79619 10.506 6.93311 10.4413 5.95003C10.3444 4.45926 9.5275 3.04234 8.00904 1.73157C7.92959 1.66293 7.87614 1.56907 7.85766 1.46572C7.83917 1.36237 7.85677 1.2558 7.9075 1.16388C8.00904 0.974648 8.23519 0.877725 8.43827 0.942341C8.54442 0.970033 18.4075 3.9608 16.9121 14.1839C17.489 13.5654 18.1306 12.3654 17.9737 10.1685C17.9598 9.95157 18.0937 9.75773 18.2967 9.69311C18.5044 9.6285 18.726 9.71619 18.8321 9.9008C18.8644 9.95619 21.9798 15.4716 17.7383 20.2116Z" fill="#E67E22"/>
</svg>
